{
    "asset" : {
        "generator" : "Khronos glTF Blender I/O v1.1.46",
        "version" : "2.0"
    },
    "scene" : 0,
    "scenes" : [
        {
            "name" : "Scene",
            "nodes" : [
                0
            ]
        }
    ],
    "nodes" : [
        {
            "mesh" : 0,
            "name" : "NAVUCO 2 STL decimado",
            "rotation" : [
                -0.02043987065553665,
                0,
                0,
                0.9997910857200623
            ],
            "scale" : [
                0.3020094633102417,
                0.3020094633102417,
                0.3020094633102417
            ],
            "translation" : [
                -149.08651733398438,
                -58.88636016845703,
                -143.52392578125
            ]
        }
    ],
    "materials" : [
        {
            "doubleSided" : true,
            "emissiveFactor" : [
                0,
                0,
                0
            ],
            "name" : "Default OBJ",
            "pbrMetallicRoughness" : {
                "baseColorTexture" : {
                    "index" : 0,
                    "texCoord" : 0
                },
                "metallicFactor" : 0,
                "roughnessFactor" : 0.5
            }
        }
    ],
    "meshes" : [
        {
            "name" : "NAVUCO 2 STL decimado",
            "primitives" : [
                {
                    "attributes" : {
                        "POSITION" : 0,
                        "NORMAL" : 1,
                        "TEXCOORD_0" : 2
                    },
                    "indices" : 3,
                    "material" : 0
                }
            ]
        }
    ],
    "textures" : [
        {
            "source" : 0
        }
    ],
    "images" : [
        {
            "mimeType" : "image/png",
            "name" : "1280px-Flag_of_the_United_Kingdom",
            "uri" : "1280px-Flag_of_the_United_Kingdom.png"
        }
    ],
    "accessors" : [
        {
            "bufferView" : 0,
            "componentType" : 5126,
            "count" : 463032,
            "max" : [
                509.33294677734375,
                332.1296081542969,
                505.1435241699219
            ],
            "min" : [
                445.15948486328125,
                152.1278533935547,
                440.97003173828125
            ],
            "type" : "VEC3"
        },
        {
            "bufferView" : 1,
            "componentType" : 5126,
            "count" : 463032,
            "type" : "VEC3"
        },
        {
            "bufferView" : 2,
            "componentType" : 5126,
            "count" : 463032,
            "type" : "VEC2"
        },
        {
            "bufferView" : 3,
            "componentType" : 5125,
            "count" : 463032,
            "type" : "SCALAR"
        }
    ],
    "bufferViews" : [
        {
            "buffer" : 0,
            "byteLength" : 5556384,
            "byteOffset" : 0
        },
        {
            "buffer" : 0,
            "byteLength" : 5556384,
            "byteOffset" : 5556384
        },
        {
            "buffer" : 0,
            "byteLength" : 3704256,
            "byteOffset" : 11112768
        },
        {
            "buffer" : 0,
            "byteLength" : 1852128,
            "byteOffset" : 14817024
        }
    ],
    "buffers" : [
        {
            "byteLength" : 16669152,
            "uri" : "nabubo_app.bin"
        }
    ]
}
