{
    "asset" : {
        "generator" : "Khronos glTF Blender I/O v1.1.46",
        "version" : "2.0"
    },
    "scene" : 0,
    "scenes" : [
        {
            "name" : "Scene",
            "nodes" : [
                1,
                3
            ]
        }
    ],
    "nodes" : [
        {
            "mesh" : 0,
            "name" : "Object_0",
            "translation" : [
                0,
                0,
                36.297523498535156
            ]
        },
        {
            "children" : [
                0
            ],
            "name" : "NABUCO 2  OBJ.obj",
            "rotation" : [
                0.7071068286895752,
                0,
                0,
                0.7071067094802856
            ],
            "scale" : [
                0.30000001192092896,
                0.30000004172325134,
                0.30000004172325134
            ],
            "translation" : [
                20.992212295532227,
                16.7718505859375,
                7.938270092010498
            ]
        },
        {
            "name" : "DirectionalLight",
            "translation" : [
                5,
                45.42617416381836,
                -10
            ]
        },
        {
            "children" : [
                2
            ],
            "mesh" : 1,
            "name" : "Sphere",
            "rotation" : [
                0.7071068286895752,
                0,
                0,
                0.7071067094802856
            ],
            "translation" : [
                0,
                65.5919418334961,
                27.039960861206055
            ]
        }
    ],
    "materials" : [
        {
            "emissiveFactor" : [
                0,
                0,
                0
            ],
            "name" : "Material_0",
            "pbrMetallicRoughness" : {
                "baseColorFactor" : [
                    1,
                    0.250980406999588,
                    0.07450980693101883,
                    1
                ],
                "metallicFactor" : 0.03999999910593033,
                "roughnessFactor" : 0.47999998927116394
            }
        },
        {
            "alphaMode" : "BLEND",
            "emissiveFactor" : [
                0,
                0,
                0
            ],
            "name" : "Material_1",
            "pbrMetallicRoughness" : {
                "baseColorFactor" : [
                    0,
                    0,
                    0,
                    1
                ],
                "metallicFactor" : 0.5,
                "roughnessFactor" : 0.5
            }
        }
    ],
    "meshes" : [
        {
            "name" : "Mesh_0",
            "primitives" : [
                {
                    "attributes" : {
                        "POSITION" : 0,
                        "NORMAL" : 1
                    },
                    "indices" : 2,
                    "material" : 0
                }
            ]
        },
        {
            "name" : "Mesh_1",
            "primitives" : [
                {
                    "attributes" : {
                        "POSITION" : 3,
                        "NORMAL" : 4,
                        "TEXCOORD_0" : 5
                    },
                    "indices" : 6,
                    "material" : 1
                }
            ]
        }
    ],
    "accessors" : [
        {
            "bufferView" : 0,
            "componentType" : 5126,
            "count" : 2252430,
            "max" : [
                -38.2327995300293,
                7.12939977645874,
                20.004499435424805
            ],
            "min" : [
                -102.40589904785156,
                -57.043701171875,
                -159.9949951171875
            ],
            "type" : "VEC3"
        },
        {
            "bufferView" : 1,
            "componentType" : 5126,
            "count" : 2252430,
            "type" : "VEC3"
        },
        {
            "bufferView" : 2,
            "componentType" : 5125,
            "count" : 2252430,
            "type" : "SCALAR"
        },
        {
            "bufferView" : 3,
            "componentType" : 5126,
            "count" : 61,
            "max" : [
                1,
                1,
                1
            ],
            "min" : [
                -1,
                -1,
                -1
            ],
            "type" : "VEC3"
        },
        {
            "bufferView" : 4,
            "componentType" : 5126,
            "count" : 61,
            "type" : "VEC3"
        },
        {
            "bufferView" : 5,
            "componentType" : 5126,
            "count" : 61,
            "type" : "VEC2"
        },
        {
            "bufferView" : 6,
            "componentType" : 5123,
            "count" : 240,
            "type" : "SCALAR"
        }
    ],
    "bufferViews" : [
        {
            "buffer" : 0,
            "byteLength" : 27029160,
            "byteOffset" : 0
        },
        {
            "buffer" : 0,
            "byteLength" : 27029160,
            "byteOffset" : 27029160
        },
        {
            "buffer" : 0,
            "byteLength" : 9009720,
            "byteOffset" : 54058320
        },
        {
            "buffer" : 0,
            "byteLength" : 732,
            "byteOffset" : 63068040
        },
        {
            "buffer" : 0,
            "byteLength" : 732,
            "byteOffset" : 63068772
        },
        {
            "buffer" : 0,
            "byteLength" : 488,
            "byteOffset" : 63069504
        },
        {
            "buffer" : 0,
            "byteLength" : 480,
            "byteOffset" : 63069992
        }
    ],
    "buffers" : [
        {
            "byteLength" : 63070472,
            "uri" : "nabubo_app.bin"
        }
    ]
}
